<?xml version="1.0" standalone="no"?>
<!DOCTYPE svg PUBLIC "-//W3C//DTD SVG 20010904//EN"
 "http://www.w3.org/TR/2001/REC-SVG-20010904/DTD/svg10.dtd">
<svg version="1.0" xmlns="http://www.w3.org/2000/svg"
 width="1190.000000pt" height="1190.000000pt" viewBox="0 0 1190.000000 1190.000000"
 preserveAspectRatio="xMidYMid meet">
<metadata>
Created by potrace 1.11, written by Peter Selinger 2001-2013
</metadata>
<g transform="translate(0.000000,1190.000000) scale(0.100000,-0.100000)"
fill="#000000" stroke="none">
<path d="M2204 10973 c-3 -13 -10 -23 -15 -23 -5 0 -9 -6 -9 -14 0 -8 -4 -16
-8 -18 -5 -1 -39 -50 -77 -108 -38 -58 -72 -107 -75 -110 -3 -3 -9 -13 -15
-22 -28 -48 -370 -553 -377 -556 -4 -2 -8 -10 -8 -17 0 -7 -3 -15 -7 -17 -5
-1 -37 -48 -73 -103 -36 -55 -67 -102 -70 -105 -10 -10 -50 -69 -50 -74 0 -6
-62 -98 -71 -106 -3 -3 -14 -20 -24 -37 -11 -18 -23 -33 -27 -33 -4 0 -8 -4
-8 -9 0 -13 -209 -324 -224 -333 -6 -4 -7 -8 -2 -8 5 0 -1 -11 -14 -25 -13
-14 -20 -25 -15 -25 4 0 -2 -9 -14 -19 -12 -11 -21 -22 -19 -24 2 -3 -7 -17
-19 -31 -13 -14 -20 -26 -16 -26 3 0 -1 -8 -9 -17 -8 -10 -57 -81 -109 -158
-51 -77 -98 -143 -104 -147 -6 -5 -7 -8 0 -8 6 0 6 -3 -1 -8 -6 -4 -28 -34
-49 -67 -22 -33 -43 -61 -47 -63 -5 -2 -8 -8 -8 -14 0 -6 -13 -27 -30 -48 -16
-21 -30 -41 -30 -44 0 -6 -38 -64 -50 -76 -7 -7 -382 -565 -395 -588 -5 -9
-24 -37 -41 -62 -17 -25 -33 -50 -37 -55 -6 -12 934 -12 952 -1 5 4 12 2 15
-2 5 -8 29 -9 61 -2 6 1 15 2 20 1 12 -2 422 -1 1295 2 344 2 631 6 638 11 6
4 12 3 12 -1 0 -5 55 -7 123 -6 146 4 134 4 177 1 30 -3 35 0 34 17 -2 26 -37
118 -47 126 -5 3 -8 10 -7 15 1 9 -13 59 -20 67 -1 1 -3 9 -5 17 -1 8 -15 47
-30 85 -15 39 -36 95 -47 125 -11 30 -26 71 -33 90 -7 19 -33 89 -56 155 -24
66 -46 122 -49 125 -3 3 -7 14 -8 25 -2 11 -14 47 -27 80 -13 33 -37 101 -55
150 -18 50 -38 104 -45 120 -7 17 -21 55 -31 85 -10 30 -21 60 -24 65 -4 6
-17 44 -31 85 -13 41 -27 77 -31 78 -5 2 -8 10 -8 18 0 8 -14 52 -31 97 -37
100 -65 174 -91 247 -11 30 -24 63 -29 72 -5 10 -9 23 -9 29 0 6 -6 25 -14 42
-8 18 -22 55 -31 82 -9 28 -21 59 -25 70 -5 11 -23 61 -40 110 -18 50 -36 99
-41 110 -5 11 -27 72 -49 135 -23 63 -45 124 -50 135 -5 11 -18 47 -30 80 -11
33 -24 69 -29 80 -5 11 -30 79 -56 150 -81 225 -93 253 -101 228z m30 -313
c20 -53 36 -101 36 -108 0 -7 4 -20 10 -30 5 -9 23 -55 40 -102 17 -47 39
-107 50 -135 10 -27 52 -142 94 -255 41 -113 114 -311 161 -440 48 -129 100
-273 116 -320 17 -47 34 -94 38 -105 5 -11 18 -45 29 -75 11 -30 37 -100 57
-155 20 -55 46 -125 57 -155 20 -56 36 -99 59 -160 8 -19 14 -37 15 -40 0 -3
4 -12 7 -20 3 -8 16 -42 27 -75 12 -33 25 -69 30 -80 5 -11 27 -74 50 -140 23
-66 46 -128 51 -137 5 -10 19 -46 30 -80 12 -35 26 -74 32 -88 14 -34 16 -42
19 -64 3 -19 -12 -20 -737 -23 -1963 -8 -2256 -9 -2260 -3 -2 3 18 37 44 75
306 456 377 560 384 563 4 2 7 10 7 18 0 8 5 14 10 14 6 0 10 4 10 9 0 5 36
62 81 128 44 65 101 151 127 192 26 40 52 78 57 85 6 6 64 92 130 191 66 99
123 182 127 183 5 2 8 9 8 15 0 11 17 34 62 87 7 8 12 17 12 20 -2 7 58 94 68
98 4 2 6 8 2 13 -3 5 2 12 10 15 9 3 16 12 16 20 0 8 9 23 20 34 11 11 20 23
19 26 -1 3 9 17 21 31 12 14 23 32 24 40 1 8 7 18 12 21 6 4 50 68 99 142 49
74 92 137 97 138 4 2 8 10 8 18 0 8 5 14 10 14 6 0 10 7 10 15 0 8 5 15 10 15
6 0 10 5 10 10 0 9 35 65 50 80 3 3 81 120 174 260 94 140 174 257 178 258 4
2 8 8 8 13 0 16 34 58 41 51 3 -4 22 -50 43 -102z"/>
<path d="M9657 10891 c-16 -42 -32 -85 -37 -96 -10 -23 -202 -548 -312 -855
-25 -69 -53 -142 -61 -163 -9 -20 -16 -38 -16 -40 0 -1 -4 -13 -9 -27 -177
-486 -226 -620 -237 -645 -7 -16 -18 -48 -25 -70 -7 -22 -16 -44 -20 -50 -4
-5 -11 -26 -15 -45 -4 -19 -11 -41 -16 -50 -11 -19 -60 -150 -63 -170 -2 -8
-11 -32 -20 -52 -9 -21 -16 -40 -16 -43 0 -6 -42 -117 -60 -160 -19 -45 -74
-210 -71 -214 1 -2 -1 -7 -6 -10 -7 -5 -50 -114 -57 -146 -1 -5 -10 -27 -19
-49 -9 -21 -17 -42 -17 -47 0 -4 -4 -18 -9 -31 -5 -13 -9 -25 -9 -28 0 -3 -7
-18 -16 -34 -8 -16 -13 -33 -10 -38 3 -4 1 -8 -4 -8 -5 0 -9 -6 -10 -12 0 -7
-3 -22 -7 -33 -7 -23 -208 -20 2557 -29 l777 -2 -20 27 c-10 15 -19 32 -19 37
0 6 -4 12 -8 14 -5 2 -89 125 -188 273 -98 149 -181 272 -184 275 -16 16 -70
100 -70 109 0 6 -4 11 -8 11 -5 0 -17 16 -28 35 -10 19 -22 35 -26 35 -5 0 -8
4 -8 9 0 5 -19 37 -42 71 -24 34 -48 69 -53 78 -20 34 -50 77 -55 82 -3 3 -17
23 -30 45 -13 22 -29 45 -35 52 -31 37 -35 43 -30 43 4 0 -6 17 -22 38 -25 32
-168 242 -198 291 -47 75 -300 447 -307 449 -4 2 -8 9 -8 16 0 7 -8 21 -17 32
-10 10 -24 31 -32 46 -8 15 -22 37 -33 47 -10 11 -18 25 -18 31 0 5 -4 10 -10
10 -5 0 -10 5 -10 11 0 13 -69 112 -82 117 -4 2 -8 9 -8 16 0 7 -20 40 -45 74
-25 34 -45 66 -45 72 0 5 -4 10 -9 10 -5 0 -11 8 -14 18 -4 9 -26 44 -51 77
-25 33 -45 66 -45 73 -1 6 -5 12 -9 12 -5 0 -15 12 -23 28 -8 15 -22 36 -31
46 -10 11 -18 25 -18 32 0 7 -4 14 -8 16 -5 2 -78 107 -163 234 l-154 232 -28
-77z m83 -188 c0 -6 4 -13 8 -15 6 -3 208 -296 237 -345 6 -10 16 -23 23 -31
6 -7 12 -17 12 -22 0 -5 6 -15 13 -22 16 -17 97 -137 97 -144 0 -3 8 -14 18
-25 11 -10 25 -32 33 -47 8 -15 17 -29 20 -32 13 -12 109 -160 109 -170 0 -5
5 -10 10 -10 6 0 18 -16 27 -35 9 -19 20 -35 25 -35 4 0 8 -7 8 -15 0 -8 11
-25 25 -39 14 -14 25 -28 25 -31 0 -5 50 -86 60 -95 3 -3 46 -66 95 -140 50
-74 93 -136 98 -138 4 -2 7 -7 7 -12 0 -11 82 -134 93 -138 4 -2 7 -8 7 -14 0
-6 14 -27 30 -48 17 -21 30 -42 30 -46 1 -5 14 -25 30 -44 17 -19 30 -39 30
-46 0 -6 9 -19 20 -29 11 -10 20 -24 20 -31 0 -7 3 -14 8 -16 7 -3 336 -490
448 -663 28 -44 59 -88 67 -97 9 -9 21 -27 28 -40 6 -13 15 -25 18 -28 3 -3
12 -17 20 -32 8 -15 22 -37 33 -47 10 -11 18 -23 18 -27 0 -4 6 -15 13 -23 8
-9 23 -32 35 -52 l22 -37 -917 4 c-505 2 -1183 4 -1506 5 -539 1 -588 3 -582
18 4 9 11 35 18 59 6 23 15 42 19 42 4 0 8 8 8 19 0 17 5 32 35 106 5 11 9 22
9 25 1 3 7 19 13 35 24 60 85 230 87 240 1 6 8 20 14 33 7 12 10 22 7 22 -3 0
3 12 12 27 10 15 16 27 14 28 -6 0 20 77 29 90 5 6 8 12 7 15 -2 5 26 84 43
125 5 11 27 72 50 135 23 63 55 151 72 195 16 44 31 85 32 90 2 6 6 17 9 25 3
8 22 60 42 115 20 55 42 116 50 135 8 19 32 87 55 150 22 63 45 124 50 135 5
11 20 52 33 90 14 39 69 189 122 335 53 146 119 326 146 400 27 74 57 152 66
172 14 34 17 36 29 20 7 -9 14 -22 14 -29z"/>
<path d="M2790 10312 c0 -2 29 -81 64 -175 36 -95 66 -179 68 -187 2 -8 5 -17
8 -20 11 -10 49 -120 42 -120 -4 0 -2 -4 3 -8 10 -7 43 -89 50 -123 2 -9 13
-36 24 -60 12 -23 21 -48 21 -55 0 -6 7 -25 15 -40 8 -16 15 -36 15 -44 0 -9
7 -25 15 -37 8 -12 16 -33 17 -47 1 -14 6 -26 10 -26 4 0 8 -7 8 -15 0 -8 6
-29 14 -47 32 -74 47 -115 50 -128 2 -8 9 -28 16 -45 6 -16 20 -52 30 -80 10
-27 24 -63 31 -80 7 -16 13 -33 14 -37 2 -5 4 -10 5 -13 1 -3 3 -8 5 -12 2
-11 15 -44 25 -68 12 -28 52 -138 54 -150 2 -5 8 -21 14 -35 9 -21 21 -51 27
-70 2 -5 6 -16 21 -55 4 -11 8 -22 8 -25 1 -3 7 -18 13 -35 47 -119 130 -345
135 -365 9 -40 22 -33 98 60 14 17 36 43 50 59 14 16 37 44 52 62 14 19 35 44
45 55 10 12 36 43 58 69 22 26 49 58 60 71 11 13 36 42 55 65 19 23 43 51 53
61 9 10 17 21 17 24 0 4 8 14 18 23 9 9 33 36 53 61 20 25 45 55 55 66 11 12
35 40 54 63 19 23 43 52 53 64 11 12 35 42 55 66 21 24 42 49 47 55 6 6 32 38
60 71 27 33 54 65 60 71 5 6 24 28 40 49 17 20 35 42 40 49 6 6 33 38 60 71
28 33 52 62 55 65 3 3 51 59 106 125 211 253 344 412 369 439 6 6 28 34 50 61
21 28 50 60 63 73 12 12 20 22 17 22 -4 0 6 13 22 29 15 16 39 44 53 62 14 18
38 45 53 61 18 17 23 29 15 29 -30 3 -2708 4 -2708 1z"/>
<path d="M6390 10308 c0 -4 5 -8 10 -8 6 0 10 -6 10 -12 0 -7 17 -31 38 -54
20 -23 53 -61 74 -85 20 -24 44 -54 55 -66 25 -30 84 -101 108 -131 11 -14 30
-35 43 -48 12 -13 22 -25 22 -28 0 -3 10 -16 23 -29 45 -48 177 -206 177 -214
1 -4 14 -19 30 -33 17 -13 30 -27 30 -32 0 -4 10 -18 23 -31 12 -13 31 -34 42
-48 75 -92 113 -136 130 -155 11 -12 34 -39 52 -60 33 -42 65 -80 85 -103 7
-8 63 -76 125 -150 62 -75 124 -148 138 -162 14 -14 25 -28 25 -31 0 -3 22
-30 50 -59 27 -30 50 -57 50 -61 0 -3 15 -22 33 -41 17 -19 48 -53 66 -77 19
-23 40 -48 45 -54 10 -10 88 -103 127 -151 10 -11 34 -41 55 -66 22 -25 55
-65 74 -89 19 -24 45 -53 58 -66 12 -13 22 -25 22 -28 0 -6 49 -56 54 -56 3 0
10 18 21 55 2 6 7 21 13 35 5 14 11 30 12 35 2 6 16 40 31 77 15 36 25 69 21
72 -3 3 1 6 8 6 7 0 11 3 7 6 -3 3 5 31 18 62 25 60 36 91 41 107 1 6 14 39
28 75 13 36 37 97 51 135 15 39 27 76 28 83 0 6 3 12 7 12 4 0 7 6 7 13 1 14
26 80 33 87 3 3 7 14 8 25 2 11 10 34 17 50 12 28 50 128 91 240 11 28 18 53
16 58 -1 4 2 7 8 7 6 0 9 3 8 8 0 4 1 14 5 22 3 8 31 85 63 170 31 85 61 166
67 180 6 14 11 30 13 35 1 6 48 132 104 280 57 149 103 277 104 285 1 13 -162
15 -1351 15 -744 0 -1353 -3 -1353 -7z"/>
<path d="M5930 10301 c0 -5 -6 -16 -12 -23 -33 -35 -88 -108 -82 -108 4 0 0
-6 -9 -12 -8 -7 -36 -40 -61 -73 -25 -33 -49 -64 -54 -70 -4 -5 -39 -50 -77
-100 -38 -49 -87 -113 -109 -141 -23 -28 -50 -64 -61 -79 -11 -16 -24 -33 -30
-39 -5 -6 -23 -29 -40 -51 -16 -22 -34 -45 -40 -52 -17 -21 -29 -36 -60 -78
-33 -43 -55 -71 -70 -89 -6 -6 -46 -58 -90 -116 -43 -58 -82 -107 -85 -110 -3
-3 -25 -32 -50 -65 -25 -33 -47 -62 -51 -65 -3 -3 -18 -23 -35 -45 -16 -22
-63 -83 -104 -136 -41 -53 -86 -111 -100 -129 -14 -18 -45 -59 -70 -90 -25
-32 -117 -151 -205 -265 -88 -114 -164 -213 -170 -219 -11 -12 -18 -22 -167
-216 l-96 -125 1939 0 c1571 0 1939 2 1939 13 0 7 -7 15 -15 18 -8 4 -15 10
-15 15 0 8 -20 35 -47 64 -7 8 -13 18 -13 23 0 6 -4 12 -8 14 -4 2 -23 23 -42
48 -19 24 -45 56 -57 70 -13 13 -23 28 -23 31 0 3 -8 15 -17 26 -10 11 -29 35
-43 53 -14 18 -30 38 -35 44 -6 6 -35 45 -65 86 -30 41 -58 77 -61 80 -4 3
-28 32 -53 65 -25 33 -54 71 -65 85 -10 14 -54 70 -98 126 -43 56 -89 116
-103 134 -14 18 -74 96 -135 174 -60 78 -122 158 -137 178 -15 20 -35 43 -44
52 -8 9 -12 16 -7 16 4 0 3 4 -3 8 -7 4 -62 72 -123 152 -61 80 -120 155 -131
166 -11 12 -20 25 -20 28 0 4 -13 21 -30 39 -16 18 -30 35 -30 38 0 4 -16 24
-35 45 -19 22 -35 42 -35 47 0 4 -8 15 -17 25 -10 10 -28 31 -40 47 -56 75
-107 140 -113 145 -3 3 -17 21 -30 40 -13 19 -27 37 -30 40 -3 3 -21 25 -40
50 -19 25 -38 47 -42 48 -5 2 -8 8 -8 13 0 6 -5 15 -10 22 -14 16 -41 49 -80
97 -32 39 -50 50 -50 31z"/>
<path d="M764 7469 c-3 -6 16 -35 51 -76 5 -7 16 -19 23 -27 6 -8 12 -20 12
-26 0 -6 5 -8 10 -5 6 3 10 0 10 -7 0 -7 10 -24 23 -38 12 -14 64 -79 115
-145 51 -66 103 -133 116 -150 13 -16 75 -95 137 -175 62 -80 116 -146 121
-148 4 -2 8 -8 8 -14 0 -5 6 -15 13 -23 28 -30 47 -56 47 -65 0 -6 3 -10 8
-10 4 0 27 -27 51 -60 24 -33 48 -60 52 -60 5 0 9 -5 9 -10 0 -6 29 -48 65
-93 36 -45 103 -131 150 -190 47 -59 85 -110 85 -113 0 -3 12 -19 28 -34 37
-40 52 -58 52 -64 0 -3 7 -14 14 -23 58 -70 186 -234 186 -238 0 -3 8 -14 18
-24 21 -24 23 -27 107 -136 38 -49 75 -97 82 -105 8 -8 90 -114 184 -235 94
-121 178 -229 187 -240 10 -11 28 -36 42 -55 13 -19 35 -46 48 -60 13 -14 31
-37 40 -52 9 -16 20 -28 24 -28 4 0 8 -6 8 -14 0 -8 3 -16 8 -18 11 -5 92
-105 92 -113 0 -4 8 -15 18 -24 9 -9 37 -43 62 -76 25 -33 50 -66 55 -73 6 -7
18 -21 28 -30 9 -9 17 -22 17 -28 0 -7 4 -14 8 -16 5 -1 42 -46 82 -98 40 -52
77 -96 82 -98 4 -2 8 -10 8 -18 0 -8 3 -14 8 -14 4 0 23 -23 42 -50 19 -27 38
-50 43 -50 4 0 7 -5 7 -10 0 -6 10 -22 23 -35 27 -30 33 -36 82 -105 22 -30
46 -62 55 -70 9 -8 27 -31 40 -50 13 -19 29 -40 35 -47 16 -19 26 -32 100
-128 38 -49 72 -92 75 -95 3 -3 17 -21 30 -40 13 -19 27 -37 30 -40 4 -3 31
-36 60 -75 30 -38 67 -88 84 -110 17 -22 33 -42 36 -45 3 -3 27 -34 55 -70 27
-36 55 -71 62 -78 7 -7 13 -16 13 -20 0 -4 12 -20 28 -37 15 -16 56 -68 92
-115 36 -47 70 -92 77 -100 7 -8 72 -91 144 -185 72 -93 144 -186 160 -205 15
-19 42 -53 58 -75 17 -22 37 -47 44 -55 7 -8 29 -36 47 -62 18 -27 37 -48 42
-48 4 0 8 -5 8 -11 0 -6 6 -16 13 -23 6 -7 23 -28 37 -46 39 -52 118 -153 140
-178 11 -13 20 -26 20 -28 0 -5 81 -109 109 -139 10 -11 28 -36 42 -55 13 -19
28 -39 35 -45 6 -5 24 -28 40 -50 16 -22 31 -42 34 -45 3 -3 27 -34 55 -70 27
-36 54 -68 60 -72 6 -5 6 -8 0 -8 -5 0 1 -7 13 -16 12 -8 22 -19 22 -25 0 -5
8 -18 18 -29 9 -10 27 -31 40 -44 12 -14 22 -28 22 -31 0 -4 6 -12 13 -19 6
-7 23 -28 37 -46 14 -18 32 -41 40 -50 16 -19 35 -46 50 -70 5 -8 12 -11 17
-7 4 5 1 12 -7 17 -8 6 -12 10 -8 10 4 0 -6 35 -21 78 -16 42 -54 147 -86 232
-31 85 -58 160 -59 165 -2 6 -7 19 -11 30 -45 114 -245 670 -245 683 0 6 -5
12 -12 12 -6 0 -9 3 -5 6 5 6 -7 45 -33 109 -8 20 -81 221 -102 280 -5 17 -14
39 -18 50 -14 34 -46 121 -136 370 -88 244 -133 368 -160 440 -8 22 -19 51
-24 65 -23 69 -91 257 -99 275 -5 11 -23 61 -41 110 -17 50 -40 113 -50 140
-10 28 -37 102 -60 165 -49 134 -77 213 -93 255 -7 17 -12 32 -13 35 0 3 -4
12 -7 20 -8 17 -67 180 -71 195 -2 6 -6 17 -9 25 -11 28 -109 295 -111 305 -2
6 -8 21 -13 35 -6 14 -36 97 -67 185 -31 88 -61 169 -66 180 -4 11 -13 36 -20
55 -7 19 -16 44 -20 55 -14 32 -52 139 -54 150 -1 6 -7 19 -13 30 -6 11 -11
23 -11 28 -1 7 -25 80 -42 122 -4 11 -13 36 -20 55 -7 19 -16 44 -20 55 -5 11
-30 79 -55 150 -25 72 -49 137 -52 145 -3 8 -7 17 -8 20 -1 3 -4 12 -8 20 -28
73 -45 129 -40 134 4 3 1 6 -5 6 -6 0 -14 16 -18 35 -3 19 -10 38 -15 41 -5 3
-7 10 -4 15 4 5 1 9 -4 9 -6 0 -10 3 -9 8 2 6 -27 96 -49 152 -4 8 -7 17 -8
20 -1 3 -5 14 -9 25 -30 77 -35 95 -28 95 4 0 1 4 -6 9 -7 4 -14 18 -15 29 -1
12 -5 22 -9 22 -4 0 -8 11 -8 24 0 14 -5 28 -10 31 -6 4 -8 11 -5 16 4 5 1 9
-5 9 -6 0 -10 6 -8 13 1 6 -3 22 -10 35 -7 12 -10 22 -7 22 3 0 -1 10 -9 21
-8 12 -12 28 -9 35 3 8 0 14 -6 14 -6 0 -10 3 -9 8 3 7 -34 116 -57 167 -7 17
-18 48 -25 70 l-12 40 -1335 0 c-734 0 -1337 -3 -1339 -6z"/>
<path d="M3850 7471 c0 -6 39 -121 51 -148 5 -13 13 -33 18 -45 5 -13 15 -41
22 -63 6 -22 16 -46 22 -52 5 -7 6 -13 2 -13 -4 0 -3 -6 3 -12 6 -7 11 -17 11
-23 1 -10 25 -80 41 -120 4 -11 17 -45 28 -75 11 -30 24 -64 28 -75 4 -11 8
-22 8 -25 1 -3 6 -18 13 -35 32 -86 117 -318 198 -545 13 -36 36 -96 50 -135
15 -38 28 -74 29 -80 4 -13 16 -46 26 -70 5 -11 12 -31 15 -45 4 -14 13 -38
20 -55 7 -16 27 -70 44 -120 18 -49 39 -106 46 -125 8 -19 35 -93 60 -165 26
-71 53 -147 61 -168 8 -21 35 -95 60 -165 25 -70 49 -136 53 -147 5 -11 32
-83 60 -160 27 -77 73 -203 101 -280 28 -77 65 -178 82 -225 16 -47 34 -94 38
-105 26 -68 61 -162 120 -330 18 -49 36 -99 40 -110 4 -11 13 -36 20 -55 7
-19 19 -49 26 -67 8 -17 14 -34 14 -37 0 -6 88 -251 124 -346 8 -19 26 -69 41
-110 14 -41 30 -83 36 -92 5 -10 9 -24 9 -32 0 -7 7 -27 15 -42 8 -16 15 -36
15 -44 0 -9 8 -27 17 -40 10 -14 17 -26 15 -27 -1 -2 -2 -4 -1 -5 0 -2 2 -10
4 -18 2 -8 10 -34 19 -57 8 -24 12 -43 8 -43 -4 0 -2 -4 4 -8 6 -4 23 -43 39
-87 15 -44 40 -112 55 -152 15 -39 25 -74 22 -77 -3 -3 1 -6 8 -6 7 0 11 -3 8
-6 -4 -3 7 -37 23 -76 16 -38 28 -73 27 -76 -1 -7 16 -51 33 -84 5 -10 9 -27
9 -37 0 -11 4 -22 9 -25 4 -3 14 -27 21 -53 7 -27 16 -52 20 -58 4 -5 13 -28
20 -50 6 -22 18 -54 26 -72 8 -17 14 -33 14 -36 0 -3 5 -18 12 -34 13 -32 19
-52 20 -71 3 -32 24 2 55 89 19 51 36 99 37 104 1 6 7 20 14 31 6 12 8 24 5
28 -3 3 0 6 7 6 7 0 11 2 8 5 -3 3 12 54 34 113 21 59 48 134 59 167 12 33 26
66 31 73 6 7 8 15 5 18 -3 4 3 24 13 45 11 21 20 45 20 54 0 8 5 15 11 15 5 0
8 4 5 9 -3 5 7 42 23 82 16 41 67 178 112 304 45 127 86 232 91 233 4 2 6 8 3
12 -3 5 8 42 24 82 15 40 40 107 54 148 15 41 40 111 57 155 17 44 33 87 35
95 4 15 170 472 182 500 3 8 8 24 10 34 2 11 7 24 12 30 5 6 18 43 31 81 12
39 28 84 35 100 7 17 27 71 45 120 17 50 35 99 40 110 5 11 43 117 85 235 42
118 80 224 85 235 5 11 21 54 36 95 14 41 32 89 40 107 8 17 14 34 14 39 0 4
30 88 66 188 37 100 89 242 116 316 27 74 55 151 63 170 19 49 147 403 150
415 1 6 6 21 12 35 5 14 54 147 108 295 53 149 103 284 111 302 8 17 14 35 14
40 0 5 12 38 26 74 14 35 27 69 28 74 4 12 11 32 39 105 12 30 23 64 24 74 2
11 7 24 12 30 5 6 11 25 13 41 l3 30 -2092 0 c-1151 0 -2093 -2 -2093 -4z"/>
<path d="M8474 7472 c-15 -2 -25 -18 -39 -60 -11 -31 -23 -60 -28 -63 -5 -3
-9 -10 -8 -15 1 -18 -12 -59 -22 -71 -5 -7 -6 -13 -2 -13 4 0 2 -6 -4 -13 -6
-8 -12 -22 -14 -33 -2 -10 -9 -30 -14 -44 -6 -14 -19 -50 -29 -80 -11 -30 -23
-58 -27 -61 -5 -3 -8 -10 -7 -15 3 -17 -23 -94 -31 -94 -5 0 -8 -3 -7 -7 2
-11 -13 -63 -30 -103 -9 -19 -17 -41 -18 -48 -1 -8 -6 -21 -10 -30 -4 -9 -8
-20 -8 -24 -1 -3 -4 -10 -8 -14 -5 -4 -8 -13 -8 -20 0 -7 -5 -25 -12 -41 -6
-15 -12 -32 -14 -38 -4 -15 -104 -287 -113 -310 -19 -45 -60 -162 -67 -188 -3
-15 -10 -30 -15 -33 -5 -3 -9 -11 -9 -19 0 -8 -5 -26 -12 -42 -6 -15 -12 -32
-14 -38 -1 -5 -9 -27 -18 -47 -9 -21 -13 -38 -10 -38 4 0 2 -6 -3 -12 -5 -7
-20 -42 -32 -78 -13 -36 -27 -74 -31 -85 -14 -36 -48 -129 -62 -170 -7 -22
-15 -42 -18 -45 -3 -3 -6 -12 -8 -20 -2 -8 -62 -175 -133 -370 -72 -195 -131
-359 -132 -365 -2 -5 -12 -35 -24 -65 -11 -30 -35 -95 -53 -145 -18 -49 -37
-101 -43 -115 -6 -14 -11 -29 -12 -35 -3 -12 -321 -886 -340 -935 -8 -19 -73
-199 -146 -400 -72 -201 -137 -378 -144 -395 -10 -25 -36 -97 -40 -115 -1 -3
-6 -16 -12 -30 -5 -14 -27 -72 -47 -130 -21 -58 -42 -114 -47 -125 -5 -11 -11
-30 -13 -41 -3 -12 -9 -30 -15 -40 -19 -35 -60 -162 -54 -168 4 -3 1 -6 -5 -6
-6 0 -14 -14 -17 -32 -4 -18 -11 -39 -15 -48 -5 -8 -18 -44 -31 -80 -12 -36
-26 -69 -29 -75 -4 -5 -11 -26 -15 -45 -4 -19 -11 -41 -15 -50 -19 -38 -43
-102 -43 -115 0 -8 -5 -15 -10 -15 -6 0 -8 -3 -4 -6 3 -4 0 -19 -9 -35 -8 -16
-15 -32 -15 -36 -1 -5 -5 -18 -9 -29 -5 -12 -10 -30 -12 -40 -2 -11 -5 -21 -8
-24 -6 -6 -40 -98 -45 -122 -2 -9 -8 -25 -14 -36 -6 -11 -7 -22 -4 -26 3 -3 2
-6 -4 -6 -9 0 -28 -54 -24 -72 0 -5 -3 -8 -7 -8 -5 0 -9 -6 -10 -12 0 -7 -4
-24 -8 -38 -7 -24 -6 -24 18 5 13 17 55 71 93 120 38 50 77 98 87 108 10 10
18 21 18 25 0 6 11 20 71 90 10 12 19 26 19 31 0 5 3 11 8 13 4 2 37 41 72 87
36 46 73 92 83 102 9 11 17 23 17 27 0 5 14 21 30 37 17 16 30 34 30 41 0 7 4
14 8 16 7 3 121 144 192 238 23 31 94 122 139 180 35 45 105 135 113 145 4 6
20 26 36 45 16 19 77 98 136 175 121 158 149 194 189 240 15 18 27 37 27 43 0
6 4 12 9 14 5 2 42 46 82 98 40 52 77 97 81 98 4 2 8 10 8 17 0 7 4 15 9 17 5
2 32 35 62 73 29 39 56 72 61 73 4 2 8 8 8 13 0 6 10 21 23 34 27 30 36 41 67
85 13 19 29 40 35 46 5 6 21 26 35 44 14 18 31 39 38 46 6 7 12 17 12 22 0 6
3 12 8 14 4 2 25 26 47 53 22 28 43 52 48 53 4 2 7 8 7 13 0 8 17 31 45 63 6
6 21 25 33 43 22 32 32 43 91 114 17 20 31 42 31 48 0 6 3 11 8 11 4 0 38 42
77 93 38 50 75 98 82 105 7 7 27 33 44 57 18 25 36 45 41 45 4 0 8 5 8 11 0 6
20 35 45 63 25 29 45 58 45 64 0 6 6 15 13 19 7 4 34 36 60 70 26 34 55 70 65
79 9 10 16 19 15 21 -2 2 6 13 16 25 11 13 65 82 120 153 56 72 110 141 121
155 11 14 48 61 82 105 35 44 68 86 75 93 7 7 13 17 13 20 0 4 10 18 23 32 12
14 38 46 57 73 18 26 37 47 42 47 4 0 8 6 8 14 0 8 3 16 8 18 4 2 23 23 42 48
19 25 37 47 40 50 3 3 17 21 30 40 14 19 32 42 40 52 20 22 31 37 60 77 14 19
32 42 40 52 8 9 26 32 40 50 14 18 43 56 65 84 22 28 62 80 90 115 27 36 54
71 60 78 5 7 18 21 28 30 9 9 17 22 17 28 0 7 4 14 8 16 4 2 39 44 77 93 38
50 80 104 95 121 35 43 48 61 100 129 24 33 51 68 60 77 19 21 21 24 99 128
36 47 68 87 73 88 4 2 8 10 8 18 0 8 4 14 8 14 5 0 24 21 42 48 19 26 37 49
40 52 3 3 44 55 90 115 104 136 95 125 125 158 14 15 25 31 25 35 0 4 16 24
35 45 18 20 31 37 27 37 -4 0 -2 4 4 8 5 4 61 72 122 152 62 80 119 153 127
163 8 9 14 18 12 18 -5 3 -2644 4 -2663 1z"/>
</g>
</svg>
