<svg xmlns="http://www.w3.org/2000/svg" viewBox="0 0 1190 1020">
  <defs>
    <style>
      .cls-1,
      .cls-2 {
        fill: #fff;
      }

      .cls-2 {
        stroke: #fff;
        stroke-miterlimit: 10;
        stroke-width: 2px;
      }
    </style>
  </defs>
  <title>Killer Mantis</title>
  <polygon class="cls-2" points="839.84 359.32 1107.32 359.4 604.66 1005.46 839.84 359.32" />
  <polygon class="cls-2" points="589.57 934.02 798.77 359.25 380.37 359.25 589.57 934.02" />
  <polygon class="cls-2" points="71.99 359.32 339.47 359.25 574.64 1005.38 71.99 359.32" />
  <polygon class="cls-2" points="546.2 76.21 274.88 76.21 358.69 299.68 546.2 76.21" />
  <polygon class="cls-2" points="820.45 299.68 632.94 76.21 904.26 76.21 820.45 299.68" />
  <polygon class="cls-1" points="393.88 327.34 589.57 74.57 785.26 327.34 393.88 327.34" />
  <path class="cls-1"
    d="M589.57,76.21,783.22,326.34H395.91L589.57,76.21m0-3.27L588,75,394.33,325.12l-2.49,3.22H787.3l-2.5-3.22L591.15,75l-1.58-2Z" />
  <path class="cls-1" d="M1180,333.73l-336.91-1.28L961.77,8.83ZM860.31,320.47l297,1.13L964.94,35.16Z" />
  <path class="cls-1" d="M0,331.45,218.23,6.54,336.91,330.17ZM215.06,32.88,22.66,319.32l297-1.13Z" />
</svg>